<?xml version="1.0" standalone="no"?><!DOCTYPE svg PUBLIC "-//W3C//DTD SVG 1.1//EN" "http://www.w3.org/Graphics/SVG/1.1/DTD/svg11.dtd"><svg t="1559301284164" class="icon" style="" viewBox="0 0 1024 1024" version="1.1" xmlns="http://www.w3.org/2000/svg" p-id="9769" xmlns:xlink="http://www.w3.org/1999/xlink" width="200" height="200"><defs><style type="text/css"></style></defs><path d="M636.112716 64.258513c0 0-316.595588 0-455.871655 0-34.882462 0-64.446801 36.229133-64.446801 65.009619 0 170.103166 0 638.402875 0 791.5693 0 26.1598 12.737092 38.35454 38.385239 38.35454 442.063161 0 690.434925 0.102331 703.790094 0.102331 26.347065 0 38.315654-12.69923 38.315654-38.72907 0-138.301879 0-600.606037 0-600.606037L636.112716 64.258513zM856.835769 920.847665l-702.657294-0.011256L154.178475 102.613052l486.207567 0 0 217.341027 217.513966 0L856.835769 920.847665zM538.02677 192.106296 243.74335 192.106296l0 38.35454 294.28342 0L538.02677 192.106296zM243.74335 831.343165l524.591783 0 0-38.35454L243.74335 792.988626 243.74335 831.343165zM422.872077 281.59954 243.74335 281.59954l0 38.35454 179.128727 0L422.872077 281.59954zM346.102622 383.876947 243.74335 383.876947l0 38.35454 102.359272 0L346.102622 383.876947zM371.692441 665.141866 243.74335 665.141866l0 38.35454 127.949091 0L371.692441 665.141866zM346.102622 537.294083 243.74335 537.294083l0 38.35454 102.359272 0L346.102622 537.294083zM384.487861 511.724731c0 88.25402 63.717184 153.417135 153.538909 153.417135 36.606733 0 70.920236-5.490038 98.096179-25.552979l97.553827 95.879698 32.529881-31.960922-97.56406-95.880721c20.419052-26.708292 22.923082-59.920718 22.923082-95.90221 0-88.266299-63.730487-153.417135-153.538909-153.417135C377.084241 358.316805 384.487861 511.724731 384.487861 511.724731zM653.181463 511.724731c0 0-9.142218 115.062596-115.154693 115.062596-61.20599 0-115.154693-54.917774-115.154693-115.062596 0-60.150962 53.948703-115.062596 115.154693-115.062596C599.218434 396.662135 653.181463 451.573769 653.181463 511.724731z" p-id="9770" fill="#ffffff"></path></svg>