<?xml version="1.0" standalone="no"?><!DOCTYPE svg PUBLIC "-//W3C//DTD SVG 1.1//EN" "http://www.w3.org/Graphics/SVG/1.1/DTD/svg11.dtd"><svg t="1559301946623" class="icon" style="" viewBox="0 0 1024 1024" version="1.1" xmlns="http://www.w3.org/2000/svg" p-id="12034" xmlns:xlink="http://www.w3.org/1999/xlink" width="200" height="200"><defs><style type="text/css"></style></defs><path d="M128 544a32 32 0 0 1 10.176-23.424l480-448a32 32 0 0 1 44.48 0.768l192 192a32 32 0 0 1-0.832 46.08l-480 448A32 32 0 0 1 352 768h-192a32 32 0 0 1-32-32v-192z m64 13.888V704h147.392l446.528-416.768-146.688-146.752L192 557.888zM64 928v-64h896v64H64z" p-id="12035" fill="#ffffff"></path></svg>